<?xml version="1.0" standalone="no"?><!DOCTYPE svg PUBLIC "-//W3C//DTD SVG 1.1//EN" "http://www.w3.org/Graphics/SVG/1.1/DTD/svg11.dtd"><svg t="1592227687041" class="icon" viewBox="0 0 1024 1024" version="1.1" xmlns="http://www.w3.org/2000/svg" p-id="5112" xmlns:xlink="http://www.w3.org/1999/xlink" width="200" height="200"><defs><style type="text/css"></style></defs><path d="M798.6176 972.8h-645.12A101.888 101.888 0 0 1 51.2 871.424V152.576A101.888 101.888 0 0 1 153.4976 51.2h645.12c56.2176 0 102.2976 45.6192 102.2976 101.376v59.904a35.9936 35.9936 0 0 1-71.8848 0V152.576a29.9008 29.9008 0 0 0-29.952-29.952h-645.12a29.9008 29.9008 0 0 0-29.952 29.952v718.848c0 16.5888 13.3632 29.952 29.952 29.952h645.12a29.9008 29.9008 0 0 0 29.952-29.952v-235.4688a35.9936 35.9936 0 0 1 71.8848 0v235.4688c0 55.7568-46.08 101.376-102.2976 101.376z" fill="#ffffff" p-id="5113"></path><path d="M241.9712 256h232.3968c20.6848 0 37.5296 16.7424 37.632 37.376a37.1712 37.1712 0 0 1-36.9664 37.4784H242.432A37.632 37.632 0 0 1 204.8 293.376 37.1712 37.1712 0 0 1 241.7664 256h0.2048zM241.9712 460.8h232.3968c20.6848 0 37.5296 16.7424 37.632 37.376a37.1712 37.1712 0 0 1-36.9664 37.4784H242.432A37.632 37.632 0 0 1 204.8 498.176 37.1712 37.1712 0 0 1 241.7664 460.8h0.2048zM241.8688 665.6h437.1456c20.6848 0 37.5808 16.6912 37.7856 37.376a37.0688 37.0688 0 0 1-36.6592 37.4784H242.5856A37.7856 37.7856 0 0 1 204.8 702.976 37.0688 37.0688 0 0 1 241.4592 665.6h0.4096zM676.4544 525.0048l257.8944-257.9456a37.7856 37.7856 0 0 1 53.248-0.256c14.592 14.336 14.848 37.7856 0.512 52.3776l-0.3072 0.256-257.8944 257.9456a37.7856 37.7856 0 0 1-53.1968 0.256 37.0688 37.0688 0 0 1-0.512-52.3776l0.256-0.256z" fill="#ffffff" p-id="5114"></path></svg>