<?xml version="1.0" standalone="no"?><!DOCTYPE svg PUBLIC "-//W3C//DTD SVG 1.1//EN" "http://www.w3.org/Graphics/SVG/1.1/DTD/svg11.dtd"><svg t="1592287160680" class="icon" viewBox="0 0 1024 1024" version="1.1" xmlns="http://www.w3.org/2000/svg" p-id="5349" xmlns:xlink="http://www.w3.org/1999/xlink" width="200" height="200"><defs><style type="text/css"></style></defs><path d="M396.8 138.5984c25.088 0 49.0496 10.752 65.8432 29.44l77.6192 86.7328a41.8816 41.8816 0 0 0 31.232 13.9264h223.232a153.6 153.6 0 0 1 153.6 153.6v313.2416a153.6 153.6 0 0 1-153.6 153.6H223.488a153.6 153.6 0 0 1-153.6-153.6V292.1984a153.6 153.6 0 0 1 153.6-153.6h173.312z m112.2816 266.1888a29.0816 29.0816 0 0 0-28.672 24.3712l-0.4096 4.7104v209.7664L409.6 573.2864a29.0816 29.0816 0 0 0-44.544 37.12l3.4304 4.0448 119.9616 120.0128c10.1376 10.0864 25.8048 11.2128 37.12 3.328l4.0448-3.328L649.6768 614.4a29.0816 29.0816 0 0 0-37.12-44.544l-4.0448 3.3792-70.3488 70.2976V433.8688a29.0816 29.0816 0 0 0-29.0816-29.0816z m336.0256-261.8368a34.9184 34.9184 0 1 1 0 69.8368H621.056a34.9184 34.9184 0 1 1 0-69.8368z" p-id="5350"></path></svg>