<?xml version="1.0" standalone="no"?><!DOCTYPE svg PUBLIC "-//W3C//DTD SVG 1.1//EN" "http://www.w3.org/Graphics/SVG/1.1/DTD/svg11.dtd"><svg t="1592226977920" class="icon" viewBox="0 0 1024 1024" version="1.1" xmlns="http://www.w3.org/2000/svg" p-id="5521" xmlns:xlink="http://www.w3.org/1999/xlink" width="200" height="200"><defs><style type="text/css"></style></defs><path d="M851.040359 1024H170.353477C76.370713 1024 0.18048 947.81232 0.18048 853.83211V173.147782C0.18048 79.162464 76.370713 2.972231 170.353477 2.972231h680.684328c93.980211 0 170.16789 76.190233 170.16789 170.172997v680.684328c0.002553 93.982764-76.18768 170.170444-170.165336 170.170444zM170.353477 116.422598a56.717523 56.717523 0 0 0-56.725183 56.725184v680.684328c0 31.325886 25.394191 56.725184 56.725183 56.725183h680.684328c31.325886 0 56.725184-25.399298 56.725184-56.725183V173.147782c0-31.330993-25.399298-56.725184-56.725184-56.725184H170.353477z m0 0" p-id="5522" fill="#ffffff"></path><path d="M436.608185 749.947016l239.433131-187.60549c27.587616-21.872965 32.219598-61.977657 10.346633-89.567827a64.270667 64.270667 0 0 0-10.346633-10.346632l-239.433131-187.802107c-28.672838-22.759017-70.450048-18.030003-93.211618 10.642834-9.064794 11.431854-14.187041 25.519311-14.386211 40.102139v373.729971c0.592403 36.654963 30.838174 65.818066 67.495691 65.228216a66.665816 66.665816 0 0 0 40.102138-14.381104z m0 0" p-id="5523" fill="#ffffff"></path></svg>